<svg id="df0b0d32-905b-421d-95d6-b5cb58e8b75c" data-name="Calque 1" xmlns="http://www.w3.org/2000/svg" viewBox="0 0 100 100"><title>casino_reinssurance_casinomc_item_5</title><path d="M50,5.94A44.06,44.06,0,1,0,94.06,50,44.12,44.12,0,0,0,50,5.94ZM84,26.42a40.87,40.87,0,0,1,3.46,6l.35.75-10,5.79L77.33,38a29.88,29.88,0,0,0-3.28-5.67l-.59-.81,10-5.78ZM77.16,50A27.16,27.16,0,1,1,50,22.84,27.19,27.19,0,0,1,77.16,50ZM57,9.22,58,9.43A41.57,41.57,0,0,1,81.09,22.77l.72.82L71.65,29.45,71.17,29a29.92,29.92,0,0,0-13.53-7.83L57,21ZM45.73,8.86l.82-.07a39.75,39.75,0,0,1,6.9,0l.82.07V20.43l-1-.11a29.79,29.79,0,0,0-6.54,0l-1,.11ZM18.91,22.76A41.61,41.61,0,0,1,42,9.43L43,9.22V21l-.67.17A29.92,29.92,0,0,0,28.83,29l-.48.49L18.19,23.59Zm-6.32,9.62a40.87,40.87,0,0,1,3.46-6l.47-.68,10,5.79-.59.8A29.88,29.88,0,0,0,22.67,38l-.41.92-10-5.79ZM10.85,63.32a41.25,41.25,0,0,1,0-26.64l.35-1,10.17,5.87-.19.66a29.92,29.92,0,0,0,0,15.64l.19.66L11.21,64.35Zm5.2,10.26a41.8,41.8,0,0,1-3.46-6l-.35-.75,10-5.79.41.92A29.36,29.36,0,0,0,26,67.67l.59.81-10,5.78Zm27,17.2L42,90.57a41.61,41.61,0,0,1-23-13.33l-.72-.83,10.16-5.86.48.49a29.92,29.92,0,0,0,13.53,7.83l.67.18Zm11.24.36-.82.07c-1.26.1-2.38.15-3.45.15s-2.19,0-3.45-.15l-.82-.07V79.57l1,.11a29.79,29.79,0,0,0,6.54,0l1-.11Zm26.82-13.9A41.58,41.58,0,0,1,58,90.57L57,90.78V79l.67-.17A29.92,29.92,0,0,0,71.17,71l.48-.49,10.16,5.86Zm6.32-9.62a40.87,40.87,0,0,1-3.46,6l-.47.68-10-5.78.59-.81A29.88,29.88,0,0,0,77.33,62l.41-.92,10,5.79Zm1.39-3.27L78.63,58.49l.19-.67a29.92,29.92,0,0,0,0-15.64l-.19-.67L88.8,35.65l.35,1a41.25,41.25,0,0,1,0,26.64Z"/><path d="M55,62.48a6.61,6.61,0,0,0,3.31-5.71c0-4.75-4-6.76-7.48-8.54s-5.5-3-5.5-5.34a3.72,3.72,0,0,1,2-3c2.12-1.28,5.16-1.18,7.91.27a1.37,1.37,0,0,0,1.82-.56,1.32,1.32,0,0,0,.1-1,1.3,1.3,0,0,0-.66-.79,12.43,12.43,0,0,0-4.64-1.42l-.81-.08v-5a1.35,1.35,0,0,0-2.7,0v5.26l-.62.2a9.11,9.11,0,0,0-1.79.8,6.36,6.36,0,0,0-3.31,5.35c0,4.2,3.7,6.08,7,7.74s6,3,6,6.14a3.94,3.94,0,0,1-2,3.42,8.61,8.61,0,0,1-4.54,1.14A12.55,12.55,0,0,1,43.6,60a1.36,1.36,0,0,0-1.8.62,1.35,1.35,0,0,0,.62,1.81A15.48,15.48,0,0,0,47.6,64l.8.09v4.68a1.35,1.35,0,1,0,2.7,0V63.91l.7-.15A10.07,10.07,0,0,0,55,62.48Z"/><path d="M50,5.94A44.06,44.06,0,1,0,94.06,50,44.12,44.12,0,0,0,50,5.94ZM84,26.42a40.87,40.87,0,0,1,3.46,6l.35.75-10,5.79L77.33,38a29.88,29.88,0,0,0-3.28-5.67l-.59-.81,10-5.78ZM77.16,50A27.16,27.16,0,1,1,50,22.84,27.19,27.19,0,0,1,77.16,50ZM57,9.22,58,9.43A41.57,41.57,0,0,1,81.09,22.77l.72.82L71.65,29.45,71.17,29a29.92,29.92,0,0,0-13.53-7.83L57,21ZM45.73,8.86l.82-.07a39.75,39.75,0,0,1,6.9,0l.82.07V20.43l-1-.11a29.79,29.79,0,0,0-6.54,0l-1,.11ZM18.91,22.76A41.61,41.61,0,0,1,42,9.43L43,9.22V21l-.67.17A29.92,29.92,0,0,0,28.83,29l-.48.49L18.19,23.59Zm-6.32,9.62a40.87,40.87,0,0,1,3.46-6l.47-.68,10,5.79-.59.8A29.88,29.88,0,0,0,22.67,38l-.41.92-10-5.79ZM10.85,63.32a41.25,41.25,0,0,1,0-26.64l.35-1,10.17,5.87-.19.66a29.92,29.92,0,0,0,0,15.64l.19.66L11.21,64.35Zm5.2,10.26a41.8,41.8,0,0,1-3.46-6l-.35-.75,10-5.79.41.92A29.36,29.36,0,0,0,26,67.67l.59.81-10,5.78Zm27,17.2L42,90.57a41.61,41.61,0,0,1-23-13.33l-.72-.83,10.16-5.86.48.49a29.92,29.92,0,0,0,13.53,7.83l.67.18Zm11.24.36-.82.07c-1.26.1-2.38.15-3.45.15s-2.19,0-3.45-.15l-.82-.07V79.57l1,.11a29.79,29.79,0,0,0,6.54,0l1-.11Zm26.82-13.9A41.58,41.58,0,0,1,58,90.57L57,90.78V79l.67-.17A29.92,29.92,0,0,0,71.17,71l.48-.49,10.16,5.86Zm6.32-9.62a40.87,40.87,0,0,1-3.46,6l-.47.68-10-5.78.59-.81A29.88,29.88,0,0,0,77.33,62l.41-.92,10,5.79Zm1.39-3.27L78.63,58.49l.19-.67a29.92,29.92,0,0,0,0-15.64l-.19-.67L88.8,35.65l.35,1a41.25,41.25,0,0,1,0,26.64Z"/><path d="M55,62.48a6.61,6.61,0,0,0,3.31-5.71c0-4.75-4-6.76-7.48-8.54s-5.5-3-5.5-5.34a3.72,3.72,0,0,1,2-3c2.12-1.28,5.16-1.18,7.91.27a1.37,1.37,0,0,0,1.82-.56,1.32,1.32,0,0,0,.1-1,1.3,1.3,0,0,0-.66-.79,12.43,12.43,0,0,0-4.64-1.42l-.81-.08v-5a1.35,1.35,0,0,0-2.7,0v5.26l-.62.2a9.11,9.11,0,0,0-1.79.8,6.36,6.36,0,0,0-3.31,5.35c0,4.2,3.7,6.08,7,7.74s6,3,6,6.14a3.94,3.94,0,0,1-2,3.42,8.61,8.61,0,0,1-4.54,1.14A12.55,12.55,0,0,1,43.6,60a1.36,1.36,0,0,0-1.8.62,1.35,1.35,0,0,0,.62,1.81A15.48,15.48,0,0,0,47.6,64l.8.09v4.68a1.35,1.35,0,1,0,2.7,0V63.91l.7-.15A10.07,10.07,0,0,0,55,62.48Z"/></svg>